<svg xmlns="http://www.w3.org/2000/svg" xmlns:xlink="http://www.w3.org/1999/xlink" version="1.1" style="" xml:space="preserve" width="437.812" height="437.812"><rect id="backgroundrect" width="100%" height="100%" x="0" y="0" fill="none" stroke="none"/>
















<g class="currentLayer" style=""><title>Layer 1</title><g id="svg_1" class="selected" fill="#ffffff" fill-opacity="1">
	<g id="svg_2" fill="#ffffff" fill-opacity="1">
		<g id="svg_3" fill="#ffffff" fill-opacity="1">
			<circle cx="152.0330047607422" cy="390.7919921875" r="47.02000045776367" id="svg_4" fill="#ffffff" fill-opacity="1"/>
			<circle cx="350.56298828125" cy="390.7919921875" r="47.02000045776367" id="svg_5" fill="#ffffff" fill-opacity="1"/>
			<path d="M114.939,82.024l-16.196-49.11C92.296,13.499,74.267,0.292,53.812,0H18.808C13.037,0,8.359,4.678,8.359,10.449     s4.678,10.449,10.449,10.449h35.004c11.361,0.251,21.365,7.546,25.078,18.286l65.829,200.098l-4.702,12.016     c-5.729,14.98-4.185,31.769,4.18,45.453c8.695,13.274,23.323,21.466,39.184,21.943h203.755c5.771,0,10.449-4.678,10.449-10.449     c0-5.771-4.678-10.449-10.449-10.449H183.38c-8.797-0.304-16.849-5.017-21.42-12.539c-4.932-7.424-5.908-16.796-2.612-25.078     l6.269-15.674c0.942-2.504,1.124-5.23,0.522-7.837l-3.135-7.837l212.637-21.943c15.482-1.393,28.327-12.554,31.869-27.69     l21.943-92.473L114.939,82.024z" id="svg_6" fill="#ffffff" fill-opacity="1"/>
		</g>
	</g>
</g><g id="svg_7">
</g><g id="svg_8">
</g><g id="svg_9">
</g><g id="svg_10">
</g><g id="svg_11">
</g><g id="svg_12">
</g><g id="svg_13">
</g><g id="svg_14">
</g><g id="svg_15">
</g><g id="svg_16">
</g><g id="svg_17">
</g><g id="svg_18">
</g><g id="svg_19">
</g><g id="svg_20">
</g><g id="svg_21">
</g></g></svg>