<?xml version="1.0" encoding="UTF-8"?>
<svg xmlns="http://www.w3.org/2000/svg" xmlns:xlink="http://www.w3.org/1999/xlink" viewBox="0 0 50 50" width="50px" height="50px">
<g id="surface57701092">
<path style="fill-rule:nonzero;fill:rgb(0%,0%,0%);fill-opacity:1;stroke-width:10;stroke-linecap:butt;stroke-linejoin:round;stroke:rgb(100%,100%,100%);stroke-opacity:1;stroke-miterlimit:10;" d="M 165.11293 86.000003 C 165.11293 129.650482 129.650482 165.11293 86.000003 165.11293 C 42.349524 165.11293 6.887076 129.650482 6.887076 86.000003 C 6.887076 42.349524 42.349524 6.887076 86.000003 6.887076 C 129.650482 6.887076 165.11293 42.349524 165.11293 86.000003 Z M 13.762739 86.000003 C 13.762739 125.941617 46.058388 158.237266 86.000003 158.237266 C 125.941617 158.237266 158.237266 125.941617 158.237266 86.000003 C 158.237266 46.058388 125.941617 13.762739 86.000003 13.762739 C 46.058388 13.762739 13.762739 46.058388 13.762739 86.000003 Z M 89.437835 44.717491 L 89.437835 82.562171 L 127.282515 82.562171 L 127.282515 89.437835 L 89.437835 89.437835 L 89.437835 127.282515 L 82.562171 127.282515 L 82.562171 89.437835 L 44.717491 89.437835 L 44.717491 82.562171 L 82.562171 82.562171 L 82.562171 44.717491 Z M 89.437835 44.717491 " transform="matrix(0.273837,0,0,0.273837,1.45,1.45)"/>
<path style=" stroke:none;fill-rule:nonzero;fill:rgb(20.392157%,59.607846%,85.882354%);fill-opacity:1;" d="M 25 3.335938 C 13.046875 3.335938 3.335938 13.046875 3.335938 25 C 3.335938 36.953125 13.046875 46.664062 25 46.664062 C 36.953125 46.664062 46.664062 36.953125 46.664062 25 C 46.664062 13.046875 36.953125 3.335938 25 3.335938 Z M 25 5.21875 C 35.9375 5.21875 44.78125 14.0625 44.78125 25 C 44.78125 35.9375 35.9375 44.78125 25 44.78125 C 14.0625 44.78125 5.21875 35.9375 5.21875 25 C 5.21875 14.0625 14.0625 5.21875 25 5.21875 Z M 24.058594 13.695312 L 24.058594 24.058594 L 13.695312 24.058594 L 13.695312 25.941406 L 24.058594 25.941406 L 24.058594 36.304688 L 25.941406 36.304688 L 25.941406 25.941406 L 36.304688 25.941406 L 36.304688 24.058594 L 25.941406 24.058594 L 25.941406 13.695312 Z M 24.058594 13.695312 "/>
</g>
</svg>
